<svg xmlns="http://www.w3.org/2000/svg" style="display:none;">
    
    <!-- Стрелки -->
    <symbol id="chevron" viewBox="0 0 9 5">
        <path d="M1.5 1L4.5 4L7.5 1"/>
    </symbol>

    <symbol id="arrow-main-slider" viewBox="0 0 64 24">
        <path d="M1 12L49 12" stroke-width="1.5" stroke-linecap="round" stroke-linejoin="round"/>
        <path d="M53.5 5.25L60.25 12L53.5 18.75" stroke-width="1.5" stroke-linecap="round"/>
    </symbol>
    <symbol id="back-to-top" viewBox="0 0 24 25">
        <path d="M5.25 15.875L12 9.125L18.75 15.875" stroke="white" stroke-width="1.5" stroke-linecap="round"/>
    </symbol>

    <!-- Контакты -->
    <symbol id="phone-fill" viewBox="0 0 20 20">
        <path d="M16.675 12.8167C15.65 12.8167 14.6583 12.65 13.7333 12.35C13.4417 12.25 13.1167 12.325 12.8917 12.55L11.5833 14.1917C9.225 13.0667 7.01667 10.9417 5.84167 8.5L7.46667 7.11667C7.69167 6.88333 7.75833 6.55833 7.66667 6.26667C7.35833 5.34167 7.2 4.35 7.2 3.325C7.2 2.875 6.825 2.5 6.375 2.5H3.49167C3.04167 2.5 2.5 2.7 2.5 3.325C2.5 11.0667 8.94167 17.5 16.675 17.5C17.2667 17.5 17.5 16.975 17.5 16.5167V13.6417C17.5 13.1917 17.125 12.8167 16.675 12.8167Z"/>
    </symbol>
    <symbol id="email-fill" viewBox="0 0 20 20">
        <path d="M16.6667 3.33337H3.33341C2.41675 3.33337 1.67508 4.08337 1.67508 5.00004L1.66675 15C1.66675 15.9167 2.41675 16.6667 3.33341 16.6667H16.6667C17.5834 16.6667 18.3334 15.9167 18.3334 15V5.00004C18.3334 4.08337 17.5834 3.33337 16.6667 3.33337ZM16.6667 6.66671L10.0001 10.8334L3.33341 6.66671V5.00004L10.0001 9.16671L16.6667 5.00004V6.66671Z"/>
    </symbol>

    <!-- Социальные сети -->
    <symbol id="youtube" viewBox="0 0 24 25">
        <path fill-rule="evenodd" clip-rule="evenodd" d="M0 12.5C0 5.87258 5.37258 0.5 12 0.5C18.6274 0.5 24 5.87258 24 12.5C24 19.1274 18.6274 24.5 12 24.5C5.37258 24.5 0 19.1274 0 12.5ZM18.1325 9.53661C17.9853 8.97111 17.5516 8.5258 17.0008 8.37466C16.0027 8.1 12 8.1 12 8.1C12 8.1 7.99731 8.1 6.99913 8.37466C6.44836 8.5258 6.01462 8.97111 5.86742 9.53661C5.6 10.5615 5.6 12.7 5.6 12.7C5.6 12.7 5.6 14.8384 5.86742 15.8634C6.01462 16.4289 6.44836 16.8742 6.99913 17.0254C7.99731 17.3 12 17.3 12 17.3C12 17.3 16.0027 17.3 17.0008 17.0254C17.5516 16.8742 17.9853 16.4289 18.1325 15.8634C18.4 14.8384 18.4 12.7 18.4 12.7C18.4 12.7 18.4 10.5615 18.1325 9.53661Z" fill="white"/>
        <path fill-rule="evenodd" clip-rule="evenodd" d="M10.7998 14.9004V10.9004L13.9998 12.9005L10.7998 14.9004Z" fill="white"/>
    </symbol>
    <symbol id="vk" viewBox="0 0 24 25">
        <path fill-rule="evenodd" clip-rule="evenodd" d="M0 12.5C0 5.87258 5.37258 0.5 12 0.5C18.6274 0.5 24 5.87258 24 12.5C24 19.1274 18.6274 24.5 12 24.5C5.37258 24.5 0 19.1274 0 12.5ZM12.6273 16.4378C12.6273 16.4378 12.8584 16.4126 12.9767 16.2879C13.085 16.1736 13.0812 15.9579 13.0812 15.9579C13.0812 15.9579 13.0668 14.9507 13.5432 14.802C14.0128 14.6557 14.6157 15.776 15.2555 16.2068C15.7388 16.5325 16.1057 16.4612 16.1057 16.4612L17.8154 16.4378C17.8154 16.4378 18.7094 16.3838 18.2856 15.6937C18.2505 15.6371 18.0383 15.183 17.0147 14.2501C15.9423 13.2736 16.0863 13.4316 17.3772 11.7422C18.1635 10.7135 18.4778 10.0855 18.3795 9.81693C18.2862 9.56006 17.7077 9.62827 17.7077 9.62827L15.7832 9.63995C15.7832 9.63995 15.6405 9.6209 15.5347 9.68296C15.4314 9.7438 15.3644 9.88576 15.3644 9.88576C15.3644 9.88576 15.0602 10.6816 14.6539 11.3588C13.7968 12.7869 13.4544 12.8625 13.3141 12.774C12.9879 12.5669 13.0693 11.9432 13.0693 11.5001C13.0693 10.1156 13.2834 9.53855 12.653 9.38922C12.4439 9.33944 12.2899 9.30687 11.7546 9.30134C11.0679 9.29458 10.4869 9.3038 10.1576 9.46173C9.93846 9.56682 9.76943 9.80157 9.87273 9.81509C9.99981 9.83168 10.2878 9.89129 10.4406 10.0953C10.6378 10.3589 10.6309 10.9501 10.6309 10.9501C10.6309 10.9501 10.7442 12.5798 10.3661 12.782C10.1069 12.9209 9.75127 12.6376 8.98687 11.3416C8.59559 10.6779 8.30009 9.94414 8.30009 9.94414C8.30009 9.94414 8.24312 9.8071 8.14108 9.73335C8.01775 9.64425 7.84558 9.61659 7.84558 9.61659L6.01689 9.62827C6.01689 9.62827 5.74206 9.63564 5.64127 9.75302C5.55174 9.85687 5.63438 10.0726 5.63438 10.0726C5.63438 10.0726 7.06615 13.3609 8.68762 15.0183C10.1745 16.5374 11.8623 16.4378 11.8623 16.4378H12.6273Z" fill="white"/>
    </symbol>
    <symbol id="tweeter" viewBox="0 0 24 25">
        <path fill-rule="evenodd" clip-rule="evenodd" d="M0 12.5C0 5.87258 5.37258 0.5 12 0.5C18.6274 0.5 24 5.87258 24 12.5C24 19.1274 18.6274 24.5 12 24.5C5.37258 24.5 0 19.1274 0 12.5ZM11.6406 10.2537L11.6658 10.669L11.2461 10.6181C9.71843 10.4232 8.38383 9.76226 7.25067 8.65216L6.69668 8.10135L6.55399 8.5081C6.25181 9.41482 6.44487 10.3724 7.0744 11.0164C7.41015 11.3723 7.33461 11.4232 6.75544 11.2113C6.55399 11.1435 6.37772 11.0927 6.36093 11.1181C6.30218 11.1774 6.50362 11.9486 6.66311 12.2536C6.88134 12.6773 7.32621 13.0925 7.81305 13.3383L8.22434 13.5332L7.73751 13.5417C7.26746 13.5417 7.25067 13.5501 7.30103 13.7281C7.46891 14.2789 8.13201 14.8636 8.87066 15.1178L9.39108 15.2958L8.93781 15.567C8.26631 15.9568 7.4773 16.1771 6.68829 16.194C6.31057 16.2025 6 16.2364 6 16.2618C6 16.3466 7.02404 16.8211 7.61999 17.0075C9.40786 17.5584 11.5315 17.3211 13.1263 16.3805C14.2595 15.711 15.3926 14.3806 15.9214 13.0925C16.2068 12.4062 16.4922 11.152 16.4922 10.5503C16.4922 10.1605 16.5174 10.1097 16.9874 9.64362C17.2644 9.37245 17.5246 9.07586 17.575 8.99112C17.6589 8.83012 17.6505 8.83011 17.2224 8.97417C16.509 9.22839 16.4083 9.1945 16.7608 8.81317C17.021 8.542 17.3316 8.0505 17.3316 7.90645C17.3316 7.88102 17.2057 7.92339 17.063 7.99966C16.9119 8.0844 16.5761 8.21151 16.3243 8.28778L15.8711 8.43184L15.4598 8.15219C15.2331 7.99966 14.9142 7.83018 14.7463 7.77934C14.3182 7.6607 13.6635 7.67765 13.2774 7.81323C12.2282 8.19456 11.5651 9.17755 11.6406 10.2537Z" fill="white"/>
    </symbol>

    <!-- Функции умного дома -->
    <symbol id="lighting" viewBox="0 0 32 32">
        <path d="M11 29H21" stroke="#328AE6" stroke-width="1.5" stroke-linecap="round" stroke-linejoin="round"/>
        <path d="M16 25V18" stroke="#328AE6" stroke-width="1.5" stroke-linecap="round" stroke-linejoin="round"/>
        <path d="M12 14L16 18L20 14" stroke="#328AE6" stroke-width="1.5" stroke-linecap="round" stroke-linejoin="round"/>
        <path d="M9.83796 20.8764C8.64889 19.9477 7.6858 18.7616 7.02108 17.4071C6.35636 16.0527 6.00731 14.5652 6.00015 13.0564C5.9702 7.63614 10.34 3.13038 15.7589 3.00284C17.8587 2.95228 19.9212 3.56417 21.6537 4.75173C23.3862 5.93928 24.7008 7.6422 25.411 9.61893C26.1212 11.5957 26.191 13.7458 25.6104 15.7644C25.0299 17.7831 23.8284 19.5676 22.1766 20.865C21.8127 21.1469 21.5178 21.5078 21.3139 21.9205C21.1101 22.3331 21.0028 22.7867 21 23.247L21 24C21 24.2652 20.8947 24.5196 20.7071 24.7071C20.5196 24.8946 20.2652 25 20 25H12C11.7348 25 11.4804 24.8946 11.2929 24.7071C11.1053 24.5196 11 24.2652 11 24L11 23.2461C10.9988 22.7889 10.8936 22.3378 10.6923 21.9273C10.491 21.5167 10.1988 21.1573 9.83796 20.8764V20.8764Z" stroke="#328AE6" stroke-width="1.5" stroke-linecap="round" stroke-linejoin="round"/>
    </symbol>
    <symbol id="curtains" viewBox="0 0 32 32">
        <path d="M5 8V6C5 5.44772 5.44772 5 6 5H26C26.5523 5 27 5.44772 27 6V8M5 8H27M5 8V11M27 8V11M27 11H5M27 11V14M5 11V14M5 14V26C5 26.5523 5.44772 27 6 27H26C26.5523 27 27 26.5523 27 26V14M5 14H27" stroke="#328AE6" stroke-width="1.5" stroke-linecap="round" stroke-linejoin="round"/>
    </symbol>
    <symbol id="ventilation" viewBox="0 0 32 32">
        <circle cx="15.7666" cy="16.0939" r="14.75" stroke="#328AE6" stroke-width="1.5"/>
        <path d="M15.0665 13.7349L14.417 14.1099C14.5441 14.3301 14.7741 14.4708 15.0279 14.4839C15.2818 14.497 15.525 14.3806 15.6741 14.1747L15.0665 13.7349ZM9.75682 4.53821L10.4063 4.16321L9.75682 4.53821ZM15.6741 14.1747L16.5293 12.9932L15.3143 12.1137L14.459 13.2951L15.6741 14.1747ZM9.1073 4.91321L14.417 14.1099L15.7161 13.3599L10.4063 4.16321L9.1073 4.91321ZM16.5293 12.9932C20.0442 8.13775 15.0824 1.6869 9.48765 3.83818L10.026 5.23824C14.2277 3.62264 17.9539 8.4672 15.3143 12.1137L16.5293 12.9932Z" fill="#328AE6"/>
        <path d="M17.9545 17.0655L23.7097 27.0339L22.4106 27.7839L16.6554 17.8155L17.9545 17.0655ZM23.2396 28.1371C16.6895 29.7509 12.1335 21.7994 16.761 16.9242L17.8489 17.9569C14.2361 21.763 17.8089 27.9302 22.8807 26.6807L23.2396 28.1371Z" fill="#328AE6"/>
        <path d="M18.2631 15.0667L17.8881 14.4172C17.6679 14.5443 17.5272 14.7742 17.5141 15.0281C17.501 15.2819 17.6174 15.5252 17.8233 15.6742L18.2631 15.0667ZM27.4598 9.75696L27.8348 10.4065L27.4598 9.75696ZM17.8233 15.6742L19.0048 16.5295L19.8843 15.3144L18.7029 14.4592L17.8233 15.6742ZM27.0848 9.10744L17.8881 14.4172L18.6381 15.7162L27.8348 10.4065L27.0848 9.10744ZM19.0048 16.5295C23.8602 20.0443 30.3111 15.0826 28.1598 9.48779L26.7597 10.0261C28.3753 14.2278 23.5308 17.954 19.8843 15.3144L19.0048 16.5295Z" fill="#328AE6"/>
        <path d="M14.9328 17.9543L4.96445 23.7096L4.21445 22.4105L14.1828 16.6553L14.9328 17.9543ZM3.86122 23.2395C2.24746 16.6894 10.1989 12.1334 15.0741 16.7608L14.0415 17.8488C10.2353 14.236 4.06811 17.8088 5.31767 22.8806L3.86122 23.2395Z" fill="#328AE6"/>
        <circle cx="16.1859" cy="15.6752" r="1.80788" stroke="#328AE6" stroke-width="1.5"/>
    </symbol>
    <symbol id="conditioner" viewBox="0 0 32 32">
        <path d="M16.1856 24.0411C16.3757 24.5552 16.7031 25.0075 17.1322 25.3487C17.5613 25.6899 18.0756 25.9071 18.6194 25.9765C19.1632 26.046 19.7157 25.9651 20.2168 25.7428C20.7178 25.5204 21.1484 25.165 21.4617 24.7151C21.775 24.2652 21.9591 23.7381 21.9939 23.191C22.0288 22.6439 21.913 22.0977 21.6593 21.6118C21.4056 21.1258 21.0236 20.7186 20.5548 20.4345C20.0859 20.1503 19.5482 20.0001 19 20H5" stroke="#328AE6" stroke-width="1.5" stroke-linecap="round" stroke-linejoin="round"/>
        <path d="M12.1856 7.95867C12.3757 7.44449 12.7031 6.99224 13.1322 6.65103C13.5613 6.30981 14.0756 6.09268 14.6194 6.02321C15.1632 5.95374 15.7157 6.03459 16.2168 6.25698C16.7178 6.47936 17.1484 6.83478 17.4617 7.28465C17.775 7.73451 17.9591 8.26161 17.9939 8.80872C18.0288 9.35582 17.913 9.90202 17.6593 10.388C17.4056 10.874 17.0236 11.2811 16.5548 11.5653C16.0859 11.8494 15.5482 11.9997 15 11.9997H3" stroke="#328AE6" stroke-width="1.5" stroke-linecap="round" stroke-linejoin="round"/>
        <path d="M23.1856 11.9587C23.3757 11.4445 23.7031 10.9922 24.1322 10.651C24.5613 10.3098 25.0756 10.0927 25.6194 10.0232C26.1632 9.95374 26.7157 10.0346 27.2168 10.257C27.7178 10.4794 28.1484 10.8348 28.4617 11.2846C28.775 11.7345 28.9591 12.2616 28.9939 12.8087C29.0288 13.3558 28.913 13.902 28.6593 14.388C28.4056 14.874 28.0236 15.2811 27.5548 15.5653C27.0859 15.8494 26.5482 15.9997 26 15.9997H4" stroke="#328AE6" stroke-width="1.5" stroke-linecap="round" stroke-linejoin="round"/>
    </symbol>
    <symbol id="sockets" viewBox="0 0 32 32">
        <path fill-rule="evenodd" clip-rule="evenodd" d="M8.87345 11.238C6.63139 14.5928 7.03275 19.057 9.83724 21.9581C12.6417 24.8592 17.0899 25.4115 20.5186 23.2843C20.6009 23.2329 20.6826 23.1803 20.7638 23.1266C23.6089 21.2248 25.0501 17.8129 24.43 14.4474C23.8098 11.0819 21.2473 8.4077 17.9112 7.6448L17.6712 7.60023C14.2729 6.92304 10.8012 8.35856 8.87345 11.238Z" stroke="#328AE6" stroke-width="1.5" stroke-linecap="round" stroke-linejoin="round"/>
        <path fill-rule="evenodd" clip-rule="evenodd" d="M28.0001 22.6669C28.0001 25.6123 25.6123 28.0001 22.6669 28.0001H9.33316C6.38774 28.0001 4 25.6123 4 22.6669V9.33316C4 6.38774 6.38774 4 9.33316 4H22.6669C25.6123 4 28.0001 6.38774 28.0001 9.33316V22.6669Z" stroke="#328AE6" stroke-width="1.5" stroke-linecap="round" stroke-linejoin="round"/>
        <path d="M11.8214 16.8569C11.8214 17.2711 12.1572 17.6069 12.5714 17.6069C12.9856 17.6069 13.3214 17.2711 13.3214 16.8569H11.8214ZM13.3214 15.1426C13.3214 14.7284 12.9856 14.3926 12.5714 14.3926C12.1572 14.3926 11.8214 14.7284 11.8214 15.1426H13.3214ZM18.6785 16.8569C18.6785 17.2711 19.0143 17.6069 19.4285 17.6069C19.8427 17.6069 20.1785 17.2711 20.1785 16.8569H18.6785ZM20.1785 15.1426C20.1785 14.7284 19.8427 14.3926 19.4285 14.3926C19.0143 14.3926 18.6785 14.7284 18.6785 15.1426H20.1785ZM13.3214 16.8569V15.1426H11.8214V16.8569H13.3214ZM20.1785 16.8569V15.1426H18.6785V16.8569H20.1785Z" fill="#328AE6"/>
    </symbol>
    <symbol id="heat-supply" viewBox="0 0 32 32">
        <path d="M15 26C16.3807 26 17.5 24.8807 17.5 23.5C17.5 22.1193 16.3807 21 15 21C13.6193 21 12.5 22.1193 12.5 23.5C12.5 24.8807 13.6193 26 15 26Z" stroke="#328AE6" stroke-width="1.5" stroke-linecap="round" stroke-linejoin="round"/>
        <path d="M15 21V6" stroke="#328AE6" stroke-width="1.5" stroke-linecap="round" stroke-linejoin="round"/>
        <path d="M30.0355 9.99981C29.5667 10.4687 28.9308 10.732 28.2678 10.732C27.6047 10.732 26.9689 10.4687 26.5 9.99981C26.0312 9.53097 25.3953 9.26758 24.7322 9.26758C24.0692 9.26758 23.4333 9.53097 22.9645 9.99981" stroke="#328AE6" stroke-width="1.5" stroke-linecap="round" stroke-linejoin="round"/>
        <path d="M30.0355 14.9998C29.5667 15.4687 28.9308 15.732 28.2678 15.732C27.6047 15.732 26.9689 15.4687 26.5 14.9998C26.0312 14.531 25.3953 14.2676 24.7322 14.2676C24.0692 14.2676 23.4333 14.531 22.9645 14.9998" stroke="#328AE6" stroke-width="1.5" stroke-linecap="round" stroke-linejoin="round"/>
        <path d="M11 18.3782V6C11 4.93913 11.4214 3.92172 12.1716 3.17157C12.9217 2.42143 13.9391 2 15 2C16.0609 2 17.0783 2.42143 17.8284 3.17157C18.5786 3.92172 19 4.93913 19 6V18.3782L19.001 18.3769C20.0676 19.21 20.8476 20.3552 21.2321 21.6528C21.6166 22.9504 21.5866 24.3357 21.146 25.6153C20.7055 26.895 19.8766 28.0053 18.7748 28.7912C17.673 29.5772 16.3534 29.9996 15 29.9996C13.6466 29.9996 12.327 29.5772 11.2252 28.7912C10.1234 28.0053 9.29448 26.895 8.85396 25.6153C8.41345 24.3357 8.38336 22.9504 8.76789 21.6528C9.15243 20.3552 9.93241 19.21 10.999 18.3769L11 18.3782Z" stroke="#328AE6" stroke-width="1.5" stroke-linecap="round" stroke-linejoin="round"/>
    </symbol>
    <symbol id="spa" viewBox="0 0 32 32">
        <path d="M26 18C26 9 16 2 16 2C16 2 6 9 6 18C6 20.6522 7.05357 23.1957 8.92893 25.0711C10.8043 26.9464 13.3478 28 16 28C18.6522 28 21.1957 26.9464 23.0711 25.0711C24.9464 23.1957 26 20.6522 26 18Z" stroke="#328AE6" stroke-width="1.5" stroke-linecap="round" stroke-linejoin="round"/>
        <path d="M17.015 23.9024C18.2382 23.6945 19.3666 23.1119 20.2444 22.2351C21.1222 21.3584 21.7062 20.2307 21.9156 19.0078" stroke="#328AE6" stroke-width="1.5" stroke-linecap="round" stroke-linejoin="round"/>
    </symbol>
    <symbol id="electric-car" viewBox="0 0 32 38">
        <path d="M2 21H30" stroke="#328AE6" stroke-width="1.5" stroke-linecap="round" stroke-linejoin="round"/>
        <path d="M27 33H24C23.7348 33 23.4804 32.8946 23.2929 32.7071C23.1054 32.5196 23 32.2652 23 32V29H9V32C9 32.2652 8.89464 32.5196 8.70711 32.7071C8.51957 32.8946 8.26522 33 8 33H5C4.73478 33 4.48043 32.8946 4.29289 32.7071C4.10536 32.5196 4 32.2652 4 32V21L7.73606 12.5939C7.81462 12.4171 7.94277 12.2669 8.10496 12.1615C8.26716 12.0561 8.45644 12 8.64987 12H23.3501C23.5436 12 23.7328 12.0561 23.895 12.1615C24.0572 12.2669 24.1854 12.4171 24.2639 12.5939L28 21V32C28 32.2652 27.8946 32.5196 27.7071 32.7071C27.5196 32.8946 27.2652 33 27 33Z" stroke="#328AE6" stroke-width="1.5" stroke-linecap="round" stroke-linejoin="round"/>
        <path d="M14 16L15 10.6429L11 9.03571L18 1L17 6.35714L21 7.96429L14 16Z" fill="white" stroke="#328AE6" stroke-width="1.5" stroke-linecap="round" stroke-linejoin="round"/>
    </symbol>
    <symbol id="control-system" viewBox="0 0 32 32">
        <path d="M11.646 15.3538C10.8751 13.4311 10.7918 11.3011 11.4101 9.32394C12.0284 7.34679 13.3103 5.64376 15.0393 4.50271C16.7683 3.36165 18.8382 2.85256 20.8992 3.06149C22.9602 3.27042 24.8858 4.18454 26.3507 5.64936C27.8155 7.11418 28.7296 9.03983 28.9385 11.1008C29.1474 13.1618 28.6383 15.2317 27.4973 16.9607C26.3562 18.6897 24.6532 19.9717 22.676 20.5899C20.6989 21.2082 18.5689 21.1249 16.6461 20.354L16.6462 20.3538L15.0002 21.9997H12.0002V24.9997H9.00024V27.9997H4.00024V22.9997L11.6462 15.3537L11.646 15.3538Z" stroke="#328AE6" stroke-width="1.5" stroke-linecap="round" stroke-linejoin="round"/>
        <path opacity="0.5" d="M22.5 10C22.7761 10 23 9.77614 23 9.5C23 9.22386 22.7761 9 22.5 9C22.2239 9 22 9.22386 22 9.5C22 9.77614 22.2239 10 22.5 10Z" stroke="#328AE6" stroke-width="1.5" stroke-linecap="round" stroke-linejoin="round"/>
        <path d="M22.5 10.75C23.1904 10.75 23.75 10.1904 23.75 9.5C23.75 8.80964 23.1904 8.25 22.5 8.25C21.8096 8.25 21.25 8.80964 21.25 9.5C21.25 10.1904 21.8096 10.75 22.5 10.75Z" fill="#328AE6"/>
    </symbol>
    <symbol id="alarm-system" viewBox="0 0 32 32">
        <path d="M7.02535 14.0002C7.02205 12.8195 7.25176 11.6497 7.70133 10.5579C8.15089 9.46608 8.81147 8.47371 9.64522 7.63763C10.479 6.80155 11.4695 6.1382 12.56 5.68559C13.6506 5.23298 14.8197 5 16.0005 5C17.1812 5 18.3503 5.23298 19.4409 5.68559C20.5314 6.1382 21.522 6.80155 22.3557 7.63763C23.1895 8.47371 23.85 9.46608 24.2996 10.5579C24.7492 11.6497 24.9789 12.8195 24.9756 14.0002V14.0002C24.9756 18.4772 25.9122 21.0751 26.7372 22.495C26.8261 22.6467 26.8734 22.8192 26.8743 22.995C26.8752 23.1708 26.8298 23.3438 26.7426 23.4965C26.6553 23.6491 26.5294 23.7761 26.3774 23.8645C26.2254 23.953 26.0528 23.9998 25.877 24.0002H6.12292C5.94707 23.9998 5.77445 23.9529 5.62248 23.8645C5.4705 23.776 5.34454 23.649 5.25731 23.4963C5.17008 23.3437 5.12465 23.1707 5.12563 22.9948C5.1266 22.819 5.17393 22.6465 5.26284 22.4948C6.08825 21.0748 7.02534 18.4769 7.02534 14.0002H7.02535Z" stroke="#328AE6" stroke-width="1.5" stroke-linecap="round" stroke-linejoin="round"/>
        <path d="M12 24V25C12 26.0609 12.4214 27.0783 13.1716 27.8284C13.9217 28.5786 14.9391 29 16 29C17.0609 29 18.0783 28.5786 18.8284 27.8284C19.5786 27.0783 20 26.0609 20 25V24" stroke="#328AE6" stroke-width="1.5" stroke-linecap="round" stroke-linejoin="round"/>
        <path d="M22.9291 2.99902C24.9639 4.2836 26.6042 6.10545 27.6689 8.26347" stroke="#328AE6" stroke-width="1.5" stroke-linecap="round" stroke-linejoin="round"/>
        <path d="M4.33118 8.26348C5.39587 6.10545 7.03617 4.2836 9.07099 2.99902" stroke="#328AE6" stroke-width="1.5" stroke-linecap="round" stroke-linejoin="round"/>
    </symbol>
    <symbol id="video-surveillance" viewBox="0 0 32 32">
        <path d="M3 7.5H19C20.0609 7.5 21.0783 7.92143 21.8284 8.67157C22.5786 9.42172 23 10.4391 23 11.5V23.5C23 23.7652 22.8946 24.0196 22.7071 24.2071C22.5196 24.3946 22.2652 24.5 22 24.5H6C4.93913 24.5 3.92172 24.0786 3.17157 23.3284C2.42143 22.5783 2 21.5609 2 20.5V8.5C2 8.23478 2.10536 7.98043 2.29289 7.79289C2.48043 7.60536 2.73478 7.5 3 7.5V7.5Z" stroke="#328AE6" stroke-width="1.5" stroke-linecap="round" stroke-linejoin="round"/>
        <path d="M23 14L30 10V22L23 18" stroke="#328AE6" stroke-width="1.5" stroke-linecap="round" stroke-linejoin="round"/>
    </symbol>
    <symbol id="intercom" viewBox="0 0 32 32">
        <path d="M5.49994 17.9091V6.5C5.49994 6.23478 5.6053 5.98043 5.79283 5.79289C5.98037 5.60536 6.23472 5.5 6.49994 5.5H25.4999C25.7652 5.5 26.0195 5.60536 26.207 5.79289C26.3946 5.98043 26.4999 6.23478 26.4999 6.5V25.5C26.4999 25.7652 26.3946 26.0196 26.207 26.2071C26.0195 26.3946 25.7652 26.5 25.4999 26.5H16.9544" stroke="#328AE6" stroke-width="1.5" stroke-linecap="round" stroke-linejoin="round"/>
        <path d="M16 19L8 27L4 23" stroke="#328AE6" stroke-width="1.5" stroke-linecap="round" stroke-linejoin="round"/>
    </symbol>
    <symbol id="multiroom" viewBox="0 0 32 32">
        <path d="M3.99927 12V7C3.99927 6.73478 4.10462 6.48043 4.29216 6.29289C4.4797 6.10536 4.73405 6 4.99927 6H26.9993C27.2645 6 27.5188 6.10536 27.7064 6.29289C27.8939 6.48043 27.9993 6.73478 27.9993 7V25C27.9993 25.2652 27.8939 25.5196 27.7064 25.7071C27.5188 25.8946 27.2645 26 26.9993 26H17.9993" stroke="#328AE6" stroke-width="1.5" stroke-linecap="round" stroke-linejoin="round"/>
        <path d="M3.99927 24C4.5297 24 5.03841 24.2107 5.41348 24.5858C5.78855 24.9609 5.99927 25.4696 5.99927 26" stroke="#328AE6" stroke-width="1.5" stroke-linecap="round" stroke-linejoin="round"/>
        <path d="M3.99927 20C5.59057 20 7.11669 20.6321 8.24191 21.7574C9.36713 22.8826 9.99927 24.4087 9.99927 26" stroke="#328AE6" stroke-width="1.5" stroke-linecap="round" stroke-linejoin="round"/>
        <path d="M3.99927 16C5.31249 16 6.61285 16.2587 7.8261 16.7612C9.03936 17.2638 10.1417 18.0003 11.0703 18.9289C11.9989 19.8575 12.7355 20.9599 13.2381 22.1732C13.7406 23.3864 13.9993 24.6868 13.9993 26" stroke="#328AE6" stroke-width="1.5" stroke-linecap="round" stroke-linejoin="round"/>
    </symbol>
    <symbol id="weather-station" viewBox="0 0 32 32">
        <path d="M22 25C22 25.7956 21.6839 26.5587 21.1213 27.1213C20.5587 27.6839 19.7956 28 19 28C18.2044 28 17.4413 27.6839 16.8787 27.1213C16.3161 26.5587 16 25.7956 16 25V17" stroke="#328AE6" stroke-width="1.5" stroke-linecap="round" stroke-linejoin="round"/>
        <path d="M4.04184 17C3.90309 16.9997 3.76591 16.9706 3.63898 16.9146C3.51205 16.8586 3.39813 16.7768 3.30443 16.6745C3.21073 16.5722 3.13929 16.4515 3.09463 16.3201C3.04996 16.1888 3.03305 16.0496 3.04496 15.9113C3.3181 12.6634 4.80129 9.63649 7.20068 7.43041C9.60007 5.22433 12.7406 4 16 4C19.2595 4 22.4 5.22433 24.7994 7.43041C27.1988 9.63649 28.6819 12.6634 28.9551 15.9113C28.967 16.0496 28.9501 16.1888 28.9054 16.3201C28.8608 16.4515 28.7893 16.5722 28.6956 16.6745C28.6019 16.7768 28.488 16.8586 28.3611 16.9146C28.2341 16.9706 28.0969 16.9997 27.9582 17H4.04184Z" stroke="#328AE6" stroke-width="1.5" stroke-linecap="round" stroke-linejoin="round"/>
        <path d="M11 17C11 8 16 4 16 4C16 4 21 8 21 17" stroke="#328AE6" stroke-width="1.5" stroke-linecap="round" stroke-linejoin="round"/>
    </symbol>
    <symbol id="spare-seat" viewBox="0 0 32 32">
        <path d="M21.5 13L14.1666 20L10.5 16.5" stroke="#328AE6" stroke-width="1.5" stroke-linecap="round" stroke-linejoin="round"/>
        <path d="M16 28C22.6274 28 28 22.6274 28 16C28 9.37258 22.6274 4 16 4C9.37258 4 4 9.37258 4 16C4 22.6274 9.37258 28 16 28Z" stroke="#328AE6" stroke-width="1.5" stroke-linecap="round" stroke-linejoin="round"/>
    </symbol>

    <!-- Шаги по запуску умного дома -->
    <symbol id="technical-specification" viewBox="0 0 32 33">
        <path d="M18.6667 2.66699H8.00004C6.53337 2.66699 5.34671 3.86699 5.34671 5.33366L5.33337 26.667C5.33337 28.1337 6.52004 29.3337 7.98671 29.3337H24C25.4667 29.3337 26.6667 28.1337 26.6667 26.667V10.667L18.6667 2.66699ZM21.3334 24.0003H10.6667V21.3337H21.3334V24.0003ZM21.3334 18.667H10.6667V16.0003H21.3334V18.667ZM17.3334 12.0003V4.66699L24.6667 12.0003H17.3334Z"/>
    </symbol>
    <symbol id="engineering-networks" viewBox="0 0 32 33">
        <path d="M7 27.0467L7.38889 30.5L9.90889 28.1045L14.2178 16.2823C13.16 16.0178 12.2267 15.4889 11.4644 14.7578L7 27.0467Z"/>
        <path d="M20.0829 14.7578C19.3207 15.4889 18.3718 16.0178 17.3296 16.2823L21.6385 28.1045L24.1585 30.5L24.5629 27.0467L20.0829 14.7578Z"/>
        <path d="M20.439 10.2778C20.439 8.25556 19.1324 6.54444 17.3279 5.89111V2.5H14.2168V5.89111C12.4124 6.54444 11.1057 8.25556 11.1057 10.2778C11.1057 12.86 13.1902 14.9444 15.7724 14.9444C18.3546 14.9444 20.439 12.86 20.439 10.2778ZM15.7724 11.8333C14.9168 11.8333 14.2168 11.1333 14.2168 10.2778C14.2168 9.42222 14.9168 8.72222 15.7724 8.72222C16.6279 8.72222 17.3279 9.42222 17.3279 10.2778C17.3279 11.1333 16.6279 11.8333 15.7724 11.8333Z"/>
    </symbol>
    <symbol id="supply-equipment" viewBox="0 0 32 33">
        <path d="M26.6667 11.1663H22.6667V5.83301H4.00004C2.53337 5.83301 1.33337 7.03301 1.33337 8.49967V23.1663H4.00004C4.00004 25.3797 5.78671 27.1663 8.00004 27.1663C10.2134 27.1663 12 25.3797 12 23.1663H20C20 25.3797 21.7867 27.1663 24 27.1663C26.2134 27.1663 28 25.3797 28 23.1663H30.6667V16.4997L26.6667 11.1663ZM8.00004 25.1663C6.89337 25.1663 6.00004 24.273 6.00004 23.1663C6.00004 22.0597 6.89337 21.1663 8.00004 21.1663C9.10671 21.1663 10 22.0597 10 23.1663C10 24.273 9.10671 25.1663 8.00004 25.1663ZM26 13.1663L28.6134 16.4997H22.6667V13.1663H26ZM24 25.1663C22.8934 25.1663 22 24.273 22 23.1663C22 22.0597 22.8934 21.1663 24 21.1663C25.1067 21.1663 26 22.0597 26 23.1663C26 24.273 25.1067 25.1663 24 25.1663Z"/>
    </symbol>
    <symbol id="perform-installation" viewBox="0 0 32 33">
        <path d="M25.52 17.7535C25.5733 17.3535 25.6 16.9402 25.6 16.5002C25.6 16.0735 25.5733 15.6469 25.5067 15.2469L28.2133 13.1402C28.4533 12.9535 28.52 12.5935 28.3733 12.3269L25.8133 7.9002C25.6533 7.60686 25.32 7.51353 25.0267 7.60686L21.84 8.88686C21.1733 8.38019 20.4667 7.95353 19.68 7.63353L19.2 4.24686C19.1467 3.92686 18.88 3.7002 18.56 3.7002H13.44C13.12 3.7002 12.8666 3.92686 12.8133 4.24686L12.3333 7.63353C11.5467 7.95353 10.8267 8.39353 10.1733 8.88686L6.98665 7.60686C6.69332 7.50019 6.35998 7.60686 6.19998 7.9002L3.65332 12.3269C3.49332 12.6069 3.54665 12.9535 3.81332 13.1402L6.51998 15.2469C6.45332 15.6469 6.39998 16.0869 6.39998 16.5002C6.39998 16.9135 6.42665 17.3535 6.49332 17.7535L3.78665 19.8602C3.54665 20.0469 3.47998 20.4069 3.62665 20.6735L6.18665 25.1002C6.34665 25.3935 6.67998 25.4869 6.97332 25.3935L10.16 24.1135C10.8267 24.6202 11.5333 25.0469 12.32 25.3669L12.8 28.7535C12.8667 29.0735 13.12 29.3002 13.44 29.3002H18.56C18.88 29.3002 19.1467 29.0735 19.1867 28.7535L19.6667 25.3669C20.4533 25.0469 21.1733 24.6202 21.8267 24.1135L25.0133 25.3935C25.3067 25.5002 25.64 25.3935 25.8 25.1002L28.36 20.6735C28.52 20.3802 28.4533 20.0469 28.2 19.8602L25.52 17.7535ZM16 21.3002C13.36 21.3002 11.2 19.1402 11.2 16.5002C11.2 13.8602 13.36 11.7002 16 11.7002C18.64 11.7002 20.8 13.8602 20.8 16.5002C20.8 19.1402 18.64 21.3002 16 21.3002Z"/>
    </symbol>
    <symbol id="programming-system" viewBox="0 0 32 32">
        <path d="M5.33333 8.49967H29.3333V5.83301H5.33333C3.86667 5.83301 2.66667 7.03301 2.66667 8.49967V23.1663H0V27.1663H18.6667V23.1663H5.33333V8.49967ZM30.6667 11.1663H22.6667C21.9333 11.1663 21.3333 11.7663 21.3333 12.4997V25.833C21.3333 26.5663 21.9333 27.1663 22.6667 27.1663H30.6667C31.4 27.1663 32 26.5663 32 25.833V12.4997C32 11.7663 31.4 11.1663 30.6667 11.1663ZM29.3333 23.1663H24V13.833H29.3333V23.1663Z"/>
    </symbol>
    <symbol id="after-sales-service" viewBox="0 0 32 32">
        <path d="M25.3333 4.49967H19.76C19.2 2.95301 17.7333 1.83301 16 1.83301C14.2667 1.83301 12.8 2.95301 12.24 4.49967H6.66667C5.2 4.49967 4 5.69967 4 7.16634V25.833C4 27.2997 5.2 28.4997 6.66667 28.4997H25.3333C26.8 28.4997 28 27.2997 28 25.833V7.16634C28 5.69967 26.8 4.49967 25.3333 4.49967ZM16 4.49967C16.7333 4.49967 17.3333 5.09967 17.3333 5.83301C17.3333 6.56634 16.7333 7.16634 16 7.16634C15.2667 7.16634 14.6667 6.56634 14.6667 5.83301C14.6667 5.09967 15.2667 4.49967 16 4.49967ZM13.3333 23.1663L8 17.833L9.88 15.953L13.3333 19.393L22.12 10.6063L24 12.4997L13.3333 23.1663Z"/>
    </symbol>

</svg>
