<svg width="295" height="638" viewBox="0 0 295 638" fill="none" xmlns="http://www.w3.org/2000/svg">
<path d="M294.313 34.5839C294.313 15.5761 278.754 0.0333182 259.746 0.0166593H221.88C220.281 0.0166593 218.981 1.31605 218.981 2.91531C218.981 14.0268 209.886 23.1226 198.774 23.1226H85.6101C74.4986 23.1226 65.4029 14.0268 65.4029 2.91531V2.89865C65.4029 1.2994 64.1035 0 62.5042 0H34.5672C15.5594 0 0 15.5594 0 34.5672L0.0499779 602.869C0.0499779 621.877 15.6094 637.42 34.6172 637.437L259.812 637.453C278.82 637.453 294.38 621.894 294.38 602.886L294.313 34.5839Z" fill="#292831"/>
</svg>
