<svg width="153" height="226" viewBox="0 0 153 226" fill="none" xmlns="http://www.w3.org/2000/svg">
<rect x="0.5" y="0.5" width="152" height="225" rx="15.5" fill="#F5F9FD" stroke="#328AE6"/>
<rect x="16.5" y="16.5" width="120" height="193" rx="7.5" fill="white" stroke="#328AE6"/>
<path d="M64.1152 114.691C64.1152 115.211 63.9941 115.652 63.752 116.016C63.5137 116.375 63.1895 116.648 62.7793 116.836C62.373 117.023 61.9141 117.117 61.4023 117.117C60.8906 117.117 60.4297 117.023 60.0195 116.836C59.6094 116.648 59.2852 116.375 59.0469 116.016C58.8086 115.652 58.6895 115.211 58.6895 114.691C58.6895 114.352 58.7539 114.041 58.8828 113.76C59.0156 113.475 59.2012 113.227 59.4395 113.016C59.6816 112.805 59.9668 112.643 60.2949 112.529C60.627 112.412 60.9922 112.354 61.3906 112.354C61.9141 112.354 62.3809 112.455 62.791 112.658C63.2012 112.857 63.5234 113.133 63.7578 113.484C63.9961 113.836 64.1152 114.238 64.1152 114.691ZM63.0254 114.668C63.0254 114.352 62.957 114.072 62.8203 113.83C62.6836 113.584 62.4922 113.393 62.2461 113.256C62 113.119 61.7148 113.051 61.3906 113.051C61.0586 113.051 60.7715 113.119 60.5293 113.256C60.291 113.393 60.1055 113.584 59.9727 113.83C59.8398 114.072 59.7734 114.352 59.7734 114.668C59.7734 114.996 59.8379 115.277 59.9668 115.512C60.0996 115.742 60.2871 115.92 60.5293 116.045C60.7754 116.166 61.0664 116.227 61.4023 116.227C61.7383 116.227 62.0273 116.166 62.2695 116.045C62.5117 115.92 62.6973 115.742 62.8262 115.512C62.959 115.277 63.0254 114.996 63.0254 114.668ZM63.916 110.689C63.916 111.104 63.8066 111.477 63.5879 111.809C63.3691 112.141 63.0703 112.402 62.6914 112.594C62.3125 112.785 61.8828 112.881 61.4023 112.881C60.9141 112.881 60.4785 112.785 60.0957 112.594C59.7168 112.402 59.4199 112.141 59.2051 111.809C58.9902 111.477 58.8828 111.104 58.8828 110.689C58.8828 110.193 58.9902 109.771 59.2051 109.424C59.4238 109.076 59.7227 108.811 60.1016 108.627C60.4805 108.443 60.9121 108.352 61.3965 108.352C61.8848 108.352 62.3184 108.443 62.6973 108.627C63.0762 108.811 63.373 109.076 63.5879 109.424C63.8066 109.771 63.916 110.193 63.916 110.689ZM62.832 110.707C62.832 110.422 62.7715 110.17 62.6504 109.951C62.5293 109.732 62.3613 109.561 62.1465 109.436C61.9316 109.307 61.6816 109.242 61.3965 109.242C61.1113 109.242 60.8613 109.303 60.6465 109.424C60.4355 109.541 60.2695 109.709 60.1484 109.928C60.0312 110.146 59.9727 110.406 59.9727 110.707C59.9727 111 60.0312 111.256 60.1484 111.475C60.2695 111.693 60.4375 111.863 60.6523 111.984C60.8672 112.105 61.1172 112.166 61.4023 112.166C61.6875 112.166 61.9355 112.105 62.1465 111.984C62.3613 111.863 62.5293 111.693 62.6504 111.475C62.7715 111.256 62.832 111 62.832 110.707ZM69.957 108.469V117H68.8262V108.469H69.957ZM78.5762 108.469V117H77.4395L73.1445 110.42V117H72.0137V108.469H73.1445L77.457 115.066V108.469H78.5762ZM85.7305 114.287H86.8555C86.7969 114.826 86.6426 115.309 86.3926 115.734C86.1426 116.16 85.7891 116.498 85.332 116.748C84.875 116.994 84.3047 117.117 83.6211 117.117C83.1211 117.117 82.666 117.023 82.2559 116.836C81.8496 116.648 81.5 116.383 81.207 116.039C80.9141 115.691 80.6875 115.275 80.5273 114.791C80.3711 114.303 80.293 113.76 80.293 113.162V112.312C80.293 111.715 80.3711 111.174 80.5273 110.689C80.6875 110.201 80.916 109.783 81.2129 109.436C81.5137 109.088 81.875 108.82 82.2969 108.633C82.7188 108.445 83.1934 108.352 83.7207 108.352C84.3652 108.352 84.9102 108.473 85.3555 108.715C85.8008 108.957 86.1465 109.293 86.3926 109.723C86.6426 110.148 86.7969 110.643 86.8555 111.205H85.7305C85.6758 110.807 85.5742 110.465 85.4258 110.18C85.2773 109.891 85.0664 109.668 84.793 109.512C84.5195 109.355 84.1621 109.277 83.7207 109.277C83.3418 109.277 83.0078 109.35 82.7188 109.494C82.4336 109.639 82.1934 109.844 81.998 110.109C81.8066 110.375 81.6621 110.693 81.5645 111.064C81.4668 111.436 81.418 111.848 81.418 112.301V113.162C81.418 113.58 81.4609 113.973 81.5469 114.34C81.6367 114.707 81.7715 115.029 81.9512 115.307C82.1309 115.584 82.3594 115.803 82.6367 115.963C82.9141 116.119 83.2422 116.197 83.6211 116.197C84.1016 116.197 84.4844 116.121 84.7695 115.969C85.0547 115.816 85.2695 115.598 85.4141 115.312C85.5625 115.027 85.668 114.686 85.7305 114.287ZM93.9688 112.137V113.057H89.3516V112.137H93.9688ZM89.5273 108.469V117H88.3965V108.469H89.5273ZM94.9531 108.469V117H93.8281V108.469H94.9531Z" fill="#328AE6"/>
<path d="M127 197L121.992 194.126L126.985 191.227L127 197ZM30 30L35.0075 32.8737L30.0151 35.7735L30 30ZM66.1605 93.2511L31.8278 34.1424L32.6925 33.6401L67.0252 92.7489L66.1605 93.2511ZM124.307 193.36L89.394 133.251L90.2587 132.749L125.172 192.858L124.307 193.36Z" fill="#328AE6"/>
<rect x="82.5" y="5.5" width="5" height="13" rx="2.5" transform="rotate(90 82.5 5.5)" fill="white" stroke="#328AE6"/>
</svg>
