<svg width="121" height="179" viewBox="0 0 121 179" fill="none" xmlns="http://www.w3.org/2000/svg">
<rect x="0.5" y="0.5" width="120" height="178" rx="15.5" fill="#F5F9FD" stroke="#328AE6"/>
<rect x="13.5" y="13.5" width="94" height="152" rx="7.5" fill="white" stroke="#328AE6"/>
<path d="M39.1504 90.9395L38.2832 90.7168L38.7109 86.4688H43.0879V87.4707H39.6309L39.373 89.791C39.5293 89.7012 39.7266 89.6172 39.9648 89.5391C40.207 89.4609 40.4844 89.4219 40.7969 89.4219C41.1914 89.4219 41.5449 89.4902 41.8574 89.627C42.1699 89.7598 42.4355 89.9512 42.6543 90.2012C42.877 90.4512 43.0469 90.752 43.1641 91.1035C43.2812 91.4551 43.3398 91.8477 43.3398 92.2812C43.3398 92.6914 43.2832 93.0684 43.1699 93.4121C43.0605 93.7559 42.8945 94.0566 42.6719 94.3145C42.4492 94.5684 42.168 94.7656 41.8281 94.9062C41.4922 95.0469 41.0957 95.1172 40.6387 95.1172C40.2949 95.1172 39.9688 95.0703 39.6602 94.9766C39.3555 94.8789 39.082 94.7324 38.8398 94.5371C38.6016 94.3379 38.4062 94.0918 38.2539 93.7988C38.1055 93.502 38.0117 93.1543 37.9727 92.7559H39.0039C39.0508 93.0762 39.1445 93.3457 39.2852 93.5645C39.4258 93.7832 39.6094 93.9492 39.8359 94.0625C40.0664 94.1719 40.334 94.2266 40.6387 94.2266C40.8965 94.2266 41.125 94.1816 41.3242 94.0918C41.5234 94.002 41.6914 93.873 41.8281 93.7051C41.9648 93.5371 42.0684 93.334 42.1387 93.0957C42.2129 92.8574 42.25 92.5898 42.25 92.293C42.25 92.0234 42.2129 91.7734 42.1387 91.543C42.0645 91.3125 41.9531 91.1113 41.8047 90.9395C41.6602 90.7676 41.4824 90.6348 41.2715 90.541C41.0605 90.4434 40.8184 90.3945 40.5449 90.3945C40.1816 90.3945 39.9062 90.4434 39.7188 90.541C39.5352 90.6387 39.3457 90.7715 39.1504 90.9395ZM44.6641 94.4258C44.6641 94.2422 44.7207 94.0879 44.834 93.9629C44.9512 93.834 45.1191 93.7695 45.3379 93.7695C45.5566 93.7695 45.7227 93.834 45.8359 93.9629C45.9531 94.0879 46.0117 94.2422 46.0117 94.4258C46.0117 94.6055 45.9531 94.7578 45.8359 94.8828C45.7227 95.0078 45.5566 95.0703 45.3379 95.0703C45.1191 95.0703 44.9512 95.0078 44.834 94.8828C44.7207 94.7578 44.6641 94.6055 44.6641 94.4258ZM49.0645 90.9395L48.1973 90.7168L48.625 86.4688H53.002V87.4707H49.5449L49.2871 89.791C49.4434 89.7012 49.6406 89.6172 49.8789 89.5391C50.1211 89.4609 50.3984 89.4219 50.7109 89.4219C51.1055 89.4219 51.459 89.4902 51.7715 89.627C52.084 89.7598 52.3496 89.9512 52.5684 90.2012C52.791 90.4512 52.9609 90.752 53.0781 91.1035C53.1953 91.4551 53.2539 91.8477 53.2539 92.2812C53.2539 92.6914 53.1973 93.0684 53.084 93.4121C52.9746 93.7559 52.8086 94.0566 52.5859 94.3145C52.3633 94.5684 52.082 94.7656 51.7422 94.9062C51.4062 95.0469 51.0098 95.1172 50.5527 95.1172C50.209 95.1172 49.8828 95.0703 49.5742 94.9766C49.2695 94.8789 48.9961 94.7324 48.7539 94.5371C48.5156 94.3379 48.3203 94.0918 48.168 93.7988C48.0195 93.502 47.9258 93.1543 47.8867 92.7559H48.918C48.9648 93.0762 49.0586 93.3457 49.1992 93.5645C49.3398 93.7832 49.5234 93.9492 49.75 94.0625C49.9805 94.1719 50.248 94.2266 50.5527 94.2266C50.8105 94.2266 51.0391 94.1816 51.2383 94.0918C51.4375 94.002 51.6055 93.873 51.7422 93.7051C51.8789 93.5371 51.9824 93.334 52.0527 93.0957C52.127 92.8574 52.1641 92.5898 52.1641 92.293C52.1641 92.0234 52.127 91.7734 52.0527 91.543C51.9785 91.3125 51.8672 91.1113 51.7188 90.9395C51.5742 90.7676 51.3965 90.6348 51.1855 90.541C50.9746 90.4434 50.7324 90.3945 50.459 90.3945C50.0957 90.3945 49.8203 90.4434 49.6328 90.541C49.4492 90.6387 49.2598 90.7715 49.0645 90.9395ZM58.9141 86.4688V95H57.7832V86.4688H58.9141ZM67.5332 86.4688V95H66.3965L62.1016 88.4199V95H60.9707V86.4688H62.1016L66.4141 93.0664V86.4688H67.5332ZM74.6875 92.2871H75.8125C75.7539 92.8262 75.5996 93.3086 75.3496 93.7344C75.0996 94.1602 74.7461 94.498 74.2891 94.748C73.832 94.9941 73.2617 95.1172 72.5781 95.1172C72.0781 95.1172 71.623 95.0234 71.2129 94.8359C70.8066 94.6484 70.457 94.3828 70.1641 94.0391C69.8711 93.6914 69.6445 93.2754 69.4844 92.791C69.3281 92.3027 69.25 91.7598 69.25 91.1621V90.3125C69.25 89.7148 69.3281 89.1738 69.4844 88.6895C69.6445 88.2012 69.873 87.7832 70.1699 87.4355C70.4707 87.0879 70.832 86.8203 71.2539 86.6328C71.6758 86.4453 72.1504 86.3516 72.6777 86.3516C73.3223 86.3516 73.8672 86.4727 74.3125 86.7148C74.7578 86.957 75.1035 87.293 75.3496 87.7227C75.5996 88.1484 75.7539 88.6426 75.8125 89.2051H74.6875C74.6328 88.8066 74.5312 88.4648 74.3828 88.1797C74.2344 87.8906 74.0234 87.668 73.75 87.5117C73.4766 87.3555 73.1191 87.2773 72.6777 87.2773C72.2988 87.2773 71.9648 87.3496 71.6758 87.4941C71.3906 87.6387 71.1504 87.8438 70.9551 88.1094C70.7637 88.375 70.6191 88.6934 70.5215 89.0645C70.4238 89.4355 70.375 89.8477 70.375 90.3008V91.1621C70.375 91.5801 70.418 91.9727 70.5039 92.3398C70.5938 92.707 70.7285 93.0293 70.9082 93.3066C71.0879 93.584 71.3164 93.8027 71.5938 93.9629C71.8711 94.1191 72.1992 94.1973 72.5781 94.1973C73.0586 94.1973 73.4414 94.1211 73.7266 93.9688C74.0117 93.8164 74.2266 93.5977 74.3711 93.3125C74.5195 93.0273 74.625 92.6855 74.6875 92.2871ZM82.9258 90.1367V91.0566H78.3086V90.1367H82.9258ZM78.4844 86.4688V95H77.3535V86.4688H78.4844ZM83.9102 86.4688V95H82.7852V86.4688H83.9102Z" fill="#328AE6"/>
<path d="M100 156L95.0035 153.107L100.007 150.227L100 156ZM24 24L28.9965 26.8927L23.9931 29.7735L24 24ZM52.2374 74.0459L25.812 28.1493L26.6786 27.6503L53.104 73.5469L52.2374 74.0459ZM97.3213 152.35L70.4409 105.663L71.3076 105.164L98.188 151.851L97.3213 152.35Z" fill="#328AE6"/>
<rect x="65.5" y="4.5" width="4" height="10" rx="2" transform="rotate(90 65.5 4.5)" fill="white" stroke="#328AE6"/>
</svg>
